<?xml version="1.0" encoding="utf-8" standalone="no"?>
<!DOCTYPE svg PUBLIC "-//W3C//DTD SVG 1.1//EN"
  "http://www.w3.org/Graphics/SVG/1.1/DTD/svg11.dtd">
<!-- Created with matplotlib (http://matplotlib.org/) -->
<svg height="288pt" version="1.1" viewBox="0 0 432 288" width="432pt" xmlns="http://www.w3.org/2000/svg" xmlns:xlink="http://www.w3.org/1999/xlink">
 <defs>
  <style type="text/css">
*{stroke-linecap:butt;stroke-linejoin:round;}
  </style>
 </defs>
 <g id="figure_1">
  <g id="patch_1">
   <path d="M 0 288 
L 432 288 
L 432 0 
L 0 0 
z
" style="fill:#ffffff;"/>
  </g>
  <g id="axes_1">
   <g id="line2d_1">
    <path clip-path="url(#pc3e22d6005)" d="M 69.218182 176.902416 
L 69.980998 177.12807 
L 70.743814 178.030685 
L 71.50663 179.158954 
L 72.269446 179.835915 
L 73.032262 180.061569 
L 73.795079 177.353724 
L 74.557895 171.486725 
L 75.320711 162.234919 
L 76.846343 135.607771 
L 78.371975 103.790585 
L 79.897608 72.650361 
L 80.660424 62.721594 
L 81.42324 59.336787 
L 82.186056 64.526824 
L 82.948872 76.260822 
L 83.711688 92.733549 
L 86.762953 166.747995 
L 87.525769 181.415492 
L 88.288585 192.923836 
L 89.051401 198.790834 
L 89.814217 199.69345 
L 90.577033 196.082989 
L 92.102666 184.574645 
L 92.865482 181.189838 
L 93.628298 180.287223 
L 94.391114 180.964184 
L 96.679563 186.379875 
L 97.442379 187.056837 
L 98.205195 187.959452 
L 98.968011 186.605529 
L 99.730827 185.928568 
L 100.493643 184.574645 
L 101.256459 183.67203 
L 102.019275 182.995068 
L 102.782092 183.897684 
L 103.544908 184.574645 
L 104.307724 185.702914 
L 105.07054 185.702914 
L 105.833356 186.154222 
L 106.596172 185.251606 
L 107.358988 184.123337 
L 108.884621 183.220722 
L 109.647437 182.543761 
L 111.173069 182.995068 
L 111.935885 182.769415 
L 112.698701 182.092453 
L 113.461517 181.189838 
L 114.224334 181.189838 
L 115.749966 180.287223 
L 116.512782 179.384608 
L 117.275598 178.707646 
L 119.564046 173.517609 
L 120.326863 172.614994 
L 121.089679 172.163686 
L 121.852495 171.035417 
L 122.615311 171.035417 
L 123.378127 170.132802 
L 124.140943 169.004533 
L 124.903759 167.199303 
L 127.192208 159.30142 
L 128.71784 156.36792 
L 130.243472 154.111382 
L 131.006288 152.75746 
L 134.057553 144.859577 
L 134.820369 143.054346 
L 136.346001 140.572154 
L 137.108817 139.443885 
L 138.63445 135.607771 
L 139.397266 134.479502 
L 140.160082 132.448618 
L 140.922898 131.546002 
L 142.44853 130.19208 
L 143.211347 128.161196 
L 143.974163 127.032927 
L 144.736979 125.227696 
L 145.499795 123.873773 
L 146.262611 124.099427 
L 147.025427 123.64812 
L 147.788243 123.64812 
L 148.551059 124.325081 
L 149.313876 124.099427 
L 150.076692 123.64812 
L 151.602324 124.550735 
L 152.36514 124.776389 
L 153.127956 126.355965 
L 154.653589 127.25858 
L 155.416405 127.935542 
L 156.942037 128.838157 
L 157.704853 130.417733 
L 159.230485 134.705156 
L 159.993301 135.382117 
L 160.756118 136.73604 
L 162.28175 137.638655 
L 163.044566 137.864309 
L 163.807382 138.766924 
L 164.570198 140.572154 
L 165.333014 142.828692 
L 166.858647 146.439153 
L 167.621463 147.567422 
L 170.672727 154.788344 
L 172.19836 157.270535 
L 173.723992 158.624458 
L 174.486808 159.527073 
L 175.249624 160.880996 
L 176.775256 164.717111 
L 177.538072 165.394072 
L 178.300889 165.394072 
L 179.063705 165.619726 
L 179.826521 165.619726 
L 180.589337 165.168418 
L 182.114969 165.168418 
L 182.877785 165.394072 
L 183.640602 166.071034 
L 184.403418 165.84538 
L 185.166234 166.071034 
L 185.92905 165.619726 
L 186.691866 165.394072 
L 188.217498 164.491457 
L 188.980314 163.363188 
L 190.505947 161.557958 
L 192.794395 155.690959 
L 193.557211 154.56269 
L 194.320027 154.337036 
L 195.84566 154.337036 
L 197.371292 156.142267 
L 198.134108 156.142267 
L 198.896924 155.239651 
L 200.422556 151.854844 
L 201.185373 150.049614 
L 202.711005 143.28 
L 203.473821 138.54127 
L 204.999453 125.002042 
L 205.762269 116.427198 
L 207.287902 94.990087 
L 208.813534 74.455592 
L 209.57635 65.42944 
L 210.339166 58.885479 
L 211.101982 53.469788 
L 212.627614 47.60279 
L 213.390431 45.797559 
L 214.153247 44.894944 
L 214.916063 44.443636 
L 215.678879 46.023213 
L 216.441695 46.700174 
L 217.204511 48.279751 
L 217.967327 50.310635 
L 221.018592 55.500672 
L 221.781408 58.208518 
L 222.544224 60.013748 
L 223.30704 63.624209 
L 224.069856 68.814247 
L 224.832673 76.260822 
L 225.595489 86.189589 
L 226.358305 98.374894 
L 228.646753 139.218232 
L 229.409569 152.080498 
L 230.935202 172.840648 
L 232.460834 188.41076 
L 233.986466 201.047372 
L 234.749282 205.334795 
L 235.512098 208.945255 
L 236.274915 211.201793 
L 237.037731 212.78137 
L 237.800547 213.909639 
L 238.563363 214.360946 
L 240.088995 217.068792 
L 241.614627 220.904907 
L 242.377444 222.258829 
L 243.14026 223.161445 
L 243.903076 223.387098 
L 244.665892 224.289714 
L 245.428708 225.643636 
L 246.191524 226.320598 
L 247.717157 228.577136 
L 249.242789 231.510635 
L 250.005605 232.638904 
L 250.768421 232.187597 
L 252.294053 235.34675 
L 253.056869 236.475019 
L 253.819686 237.828941 
L 254.582502 238.280249 
L 255.345318 238.280249 
L 256.108134 238.505903 
L 256.87095 238.505903 
L 257.633766 238.95721 
L 258.396582 240.085479 
L 259.159398 240.762441 
L 259.922215 241.665056 
L 260.685031 242.116364 
L 261.447847 242.116364 
L 262.210663 241.89071 
L 262.973479 240.762441 
L 263.736295 240.311133 
L 265.261928 238.95721 
L 266.024744 238.731557 
L 267.550376 236.926326 
L 268.313192 235.798057 
L 269.076008 234.895442 
L 269.838824 233.767173 
L 270.60164 233.315866 
L 271.364457 230.833674 
L 272.127273 229.254097 
L 274.415721 223.387098 
L 275.178537 220.679253 
L 275.941353 218.648369 
L 278.229802 214.812254 
L 278.992618 212.104408 
L 279.755434 209.84787 
L 280.51825 206.688717 
L 281.281066 202.852603 
L 282.806699 197.211258 
L 283.569515 195.631681 
L 284.332331 193.600797 
L 285.095147 192.246874 
L 287.383595 186.605529 
L 288.146411 185.47726 
L 288.909228 184.574645 
L 289.672044 183.897684 
L 290.43486 183.67203 
L 291.960492 180.964184 
L 292.723308 180.512877 
L 293.486124 179.158954 
L 295.011757 177.353724 
L 295.774573 177.353724 
L 296.537389 178.030685 
L 298.063021 178.9333 
L 298.825837 179.158954 
L 299.588653 178.9333 
L 300.35147 178.256339 
L 301.877102 177.353724 
L 303.402734 178.707646 
L 304.928366 180.512877 
L 305.691183 180.738531 
L 306.453999 181.189838 
L 307.216815 181.415492 
L 307.979631 181.415492 
L 308.742447 180.964184 
L 309.505263 182.092453 
L 310.268079 182.092453 
L 311.793712 183.897684 
L 312.556528 184.348991 
L 313.319344 184.348991 
L 314.08216 185.251606 
L 315.607792 184.800299 
L 317.133424 185.702914 
L 317.896241 186.379875 
L 318.659057 186.154222 
L 320.184689 185.251606 
L 320.947505 185.251606 
L 321.710321 184.574645 
L 323.235954 185.025953 
L 324.761586 186.379875 
L 325.524402 186.379875 
L 326.287218 185.702914 
L 327.050034 184.574645 
L 327.81285 184.800299 
L 328.575666 184.348991 
L 329.338483 183.67203 
L 330.864115 183.67203 
L 331.626931 184.348991 
L 332.389747 184.123337 
L 333.915379 184.123337 
L 334.678195 183.897684 
L 335.441012 183.897684 
L 336.203828 184.123337 
L 337.72946 184.123337 
L 339.255092 183.67203 
L 340.017908 182.769415 
L 340.780725 182.769415 
L 341.543541 182.995068 
L 342.306357 182.769415 
L 343.069173 182.995068 
L 344.594805 183.897684 
L 345.357621 183.67203 
L 346.120437 182.769415 
L 346.883254 181.641146 
L 347.64607 181.189838 
L 348.408886 180.964184 
L 349.934518 181.415492 
L 350.697334 180.964184 
L 351.46015 180.061569 
L 352.222967 178.9333 
L 352.985783 177.579377 
L 354.511415 173.968917 
L 355.274231 173.066301 
L 356.037047 173.066301 
L 356.799863 172.614994 
L 357.562679 171.938032 
L 358.325496 171.035417 
L 359.088312 170.809763 
L 359.851128 170.132802 
L 360.613944 170.132802 
L 361.37676 171.712379 
L 362.139576 172.38934 
L 362.902392 174.19457 
L 363.665208 177.353724 
L 365.190841 182.318107 
L 366.716473 186.379875 
L 367.479289 187.282491 
L 368.242105 187.959452 
L 369.004921 188.862067 
L 370.530554 189.313375 
L 371.29337 188.41076 
L 372.056186 188.185106 
L 372.819002 187.733798 
L 373.581818 187.508144 
L 373.581818 187.508144 
" style="fill:none;stroke:#1f77b4;stroke-linecap:square;stroke-width:1.5;"/>
   </g>
  </g>
 </g>
 <defs>
  <clipPath id="pc3e22d6005">
   <rect height="217.44" width="334.8" x="54" y="34.56"/>
  </clipPath>
 </defs>
</svg>
